# xmcd
#
# Track frame offsets:
#	150
#	21094
#	38425
#	57304
#	76731
#	99140
#	120201
#	136699
#	151429
#	173131
#
# Disc length: 2569 seconds
#
# Revision: 0
# Processed by: cddbd v1.5.1PL2 Copyright (c) Steve Scherf et al.
# Submitted via: dBpowerAMP V4.0
#
DISCID=620a070a
DTITLE=Clark Dobbins - The Soul of a Man
DYEAR=2005
DGENRE=Blues
TTITLE0=Matter of Time
TTITLE1=Rock Me Baby Live
TTITLE2=Drown in My Own Tears
TTITLE3=Annalee
TTITLE4=You Dont Know
TTITLE5=I Wish It Would Rain
TTITLE6=Sara Smile
TTITLE7=Love The One Your With
TTITLE8=Sign Your Name
TTITLE9=Its Not Over
EXTD=
EXTT0=
EXTT1=
EXTT2=
EXTT3=
EXTT4=
EXTT5=
EXTT6=
EXTT7=
EXTT8=
EXTT9=
PLAYORDER=
